HIERARCHY
ROOT pelvis
{
  OFFSET 0 100 0
  CHANNELS 6 Xposition Yposition Zposition Zrotation Xrotation Yrotation
  JOINT pelvis_right_femur
  {
    OFFSET -10.78128 -3.44521 -0.5502486
    CHANNELS 3 Zrotation Xrotation Yrotation
    JOINT right_femur_tibia
    {
      OFFSET -0.8047443 -44.0398 -0.1307829
      CHANNELS 3 Zrotation Xrotation Yrotation
      JOINT right_tibia_foot
      {
        OFFSET 3.006224 -47.83518 -5
        CHANNELS 3 Zrotation Xrotation Yrotation
        End Site
        {
          OFFSET 0 -5 15
        }
      }
    }
  }
  JOINT pelvis_left_femur
  {
    OFFSET 10.78128 -3.44521 -0.5502486
    CHANNELS 3 Zrotation Xrotation Yrotation
    JOINT left_femur_tibia
    {
      OFFSET 0.8047443 -44.0398 -0.1307829
      CHANNELS 3 Zrotation Xrotation Yrotation
      JOINT left_tibia_foot
      {
        OFFSET -4.370144 -48.10324 -4.275266
        CHANNELS 3 Zrotation Xrotation Yrotation
        End Site
        {
          OFFSET 0 -5 15
        }
      }
    }
  }
  JOINT pelvis_spine1
  {
    OFFSET 0 6.468898 -3.129235
    CHANNELS 3 Zrotation Xrotation Yrotation
    JOINT spine1
    {
      OFFSET 0 23.15396 4.99043
      CHANNELS 3 Zrotation Xrotation Yrotation
      JOINT spine2
      {
        OFFSET 0 20.79997 -5.064912
        CHANNELS 3 Zrotation Xrotation Yrotation
        JOINT neck
        {
          OFFSET 0 14.38658 9.616178
          CHANNELS 3 Zrotation Xrotation Yrotation
          End Site
          {
            OFFSET 0 20 0
          }
        }
      }
      JOINT right_manubrium
      {
        OFFSET -5.722621 16.35077 3.967754
        CHANNELS 3 Zrotation Xrotation Yrotation
        JOINT right_clavicle
        {
          OFFSET -13.16364 1.694482 -4.693211
          CHANNELS 3 Zrotation Xrotation Yrotation
          JOINT right_humerus
          {
            OFFSET -28.5034 -0.3100689 -2.792744
            CHANNELS 3 Zrotation Xrotation Yrotation
            JOINT right_radius
            {
              OFFSET -25.15693 0.02248979 -1.271978
              CHANNELS 3 Zrotation Xrotation Yrotation
              End Site
              {
                OFFSET -15 0 0
              }
            }
          }
        }
      }
      JOINT left_manubrium
      {
        OFFSET 5.722621 16.35077 3.967754
        CHANNELS 3 Zrotation Xrotation Yrotation
        JOINT left_clavicle
        {
          OFFSET 13.16364 1.694482 -4.693211
          CHANNELS 3 Zrotation Xrotation Yrotation
          JOINT left_humerus
          {
            OFFSET 29.39168 -1.063119 -2.237045
            CHANNELS 3 Zrotation Xrotation Yrotation
            JOINT left_radius
            {
              OFFSET 24.59957 -0.9528479 0.9047498
              CHANNELS 3 Zrotation Xrotation Yrotation
              End Site
              {
                OFFSET 15 -0 -0
              }
            }
          }
        }
      }
    }
  }
}
MOTION
Frames: 7
Frame Time: 0.0416666666667
0 103.5113 0 2.212255 -1.144226 0.290392 1.187505 -10.0082 8.649805 -0 33.69511 -0 -5.259955 -17.83108 -2.183493 -8.071593 10.08672 -23.4274 -0 5.29331 -0 7.615342 -16.14925 26.4836 -4.35683 -5.071996 4.97899 2.02771 9.211358 -7.729477 0.8344279 22.79523 7.182688 3.269269 -23.0993 8.798185 6.359368 -19.72166 11.57227 86.33891 35.94898 -19.83086 -0 0 16.18761 -7.568848 8.247967 4.610254 5.522362 -19.4844 -1.711359 -94.75227 29.74657 22.85091 0 0 -16.06821 3.499645 17.8725 9.535979
0.3450826 103.4368 1.444378 2.12494 -0.9364043 0.525264 1.337074 -10.7477 8.412381 -0 32.04398 -0 -5.296637 -17.24283 -1.917553 -8.004027 10.20529 -23.1638 -0 5.680867 -0 7.346512 -16.37272 26.12513 -4.316968 -4.933068 4.962372 2.111272 9.179658 -7.726559 0.8515066 22.67608 7.213941 3.322243 -23.21637 8.807382 6.318039 -19.59634 11.56082 86.38872 35.93207 -19.95166 -0 0 15.96784 -7.59177 8.291044 4.620424 5.617873 -19.53344 -1.742853 -94.59975 29.70684 22.58047 0 0 -16.44371 3.541868 17.72824 9.478087
0.703433 103.3215 3.055975 2.012601 -0.644875 0.7657009 1.516422 -11.66399 8.078036 -0 29.6351 -0 -5.350446 -16.43169 -1.521804 -7.921218 10.35038 -22.77242 -0 6.315302 -0 6.93583 -16.63824 25.58318 -4.256771 -4.75997 4.944347 2.21758 9.136223 -7.719536 0.8736376 22.51788 7.252815 3.39299 -23.36808 8.81362 6.255216 -19.41243 11.53966 86.47448 35.90701 -20.1285 -0 0 15.64895 -7.625126 8.356777 4.635871 5.744187 -19.60371 -1.785774 -94.3831 29.64837 22.20276 0 0 -16.94778 3.591782 17.52603 9.404377
1.077976 103.1602 4.885536 1.885885 -0.2820189 1.027046 1.702084 -12.64862 7.661271 -0 26.54056 -0 -5.423722 -15.44507 -1.004847 -7.832166 10.4982 -22.25903 -0 7.224531 -0 6.382133 -16.90171 24.86071 -4.175795 -4.570733 4.929034 2.336219 9.083959 -7.706813 0.8985018 22.33264 7.294837 3.476182 -23.54052 8.812526 6.17182 -19.17448 11.50811 86.59922 35.87397 -20.35532 -0 0 15.24047 -7.669286 8.445338 4.657371 5.890388 -19.69195 -1.837914 -94.11211 29.57124 21.73796 0 0 -17.54428 3.641918 17.27421 9.322804
1.472046 102.9521 6.977261 1.752107 0.133185 1.324229 1.877066 -13.59681 7.179723 -0 22.88402 -0 -5.521082 -14.33989 -0.3855213 -7.741901 10.61415 -21.63369 -0 8.439054 -0 5.688766 -17.11258 23.96856 -4.072628 -4.378818 4.921097 2.457918 9.026673 -7.68649 0.9231248 22.13246 7.335784 3.566064 -23.71947 8.799328 6.070999 -18.89026 11.4683 86.7604 35.83339 -20.62023 -0 0 14.75664 -7.726765 8.55647 4.687149 6.043441 -19.79234 -1.897889 -93.80052 29.47484 21.21249 0 0 -18.19425 3.68525 16.98044 9.242071
1.889136 102.703 9.365814 1.616654 0.5712492 1.666844 2.029428 -14.38172 6.657024 -0 18.85799 -0 -5.648833 -13.19315 0.3051224 -7.650959 10.64029 -20.90947 -0 10.01494 -0 4.860733 -17.19959 22.92382 -3.94336 -4.195024 4.927377 2.572789 8.96983 -7.655474 0.9429108 21.93188 7.370837 3.655389 -23.88735 8.767063 5.958725 -18.57097 11.4258 86.94955 35.78642 -20.90323 -0 0 14.21706 -7.803713 8.690085 4.729937 6.184867 -19.89495 -1.965394 -93.46787 29.35769 20.66354 0 0 -18.84839 3.713422 16.65134 9.173901
2.332325 102.4291 12.07397 1.484742 0.9914406 2.054499 2.151563 -14.84109 6.123679 -0 14.72292 -0 -5.813162 -12.10537 1.024732 -7.554839 10.4906 -20.10098 -0 12.0452 -0 3.904133 -17.06459 21.7491 -3.780981 -4.029026 4.957629 2.669312 8.920759 -7.60907 0.9512636 21.74897 7.394129 3.734989 -24.02164 8.705699 5.843646 -18.23076 11.38944 87.15302 35.7353 -21.17607 -0 0 13.64624 -7.910414 8.846632 4.793355 6.289491 -19.98535 -2.041245 -93.13961 29.21764 20.14018 0 0 -19.44402 3.715881 16.2924 9.133976
